<?xml version="1.0" standalone="no"?>
<!DOCTYPE svg PUBLIC "-//W3C//DTD SVG 1.1//EN" 
  "http://www.w3.org/Graphics/SVG/1.1/DTD/svg11.dtd">
<svg width="4096" height="4096" viewBox="0 0 4096 4096"
     xmlns="http://www.w3.org/2000/svg" version="1.1">
<desc>shuttle.blend, (Blender 2.83.2)</desc>
<polygon stroke="black" stroke-width="1" fill="rgb(204, 204, 204)" fill-opacity="0" points="3300.000,3169.000 3304.000,3922.000 3388.000,3928.000 3383.000,3173.000 " />
<polygon stroke="black" stroke-width="1" fill="rgb(204, 204, 204)" fill-opacity="0" points="3216.000,3166.000 3220.000,3919.000 3304.000,3922.000 3300.000,3169.000 " />
<polygon stroke="black" stroke-width="1" fill="rgb(204, 204, 204)" fill-opacity="0" points="3125.000,3163.000 3128.000,3916.000 3220.000,3919.000 3216.000,3166.000 " />
<polygon stroke="black" stroke-width="1" fill="rgb(204, 204, 204)" fill-opacity="0" points="3029.000,3162.000 3032.000,3913.000 3128.000,3916.000 3125.000,3163.000 " />
<polygon stroke="black" stroke-width="1" fill="rgb(204, 204, 204)" fill-opacity="0" points="2922.000,3181.000 2931.000,3912.000 3032.000,3913.000 3029.000,3162.000 " />
<polygon stroke="black" stroke-width="1" fill="rgb(204, 204, 204)" fill-opacity="0" points="3465.000,3932.000 3540.000,3937.000 3534.000,3182.000 3461.000,3178.000 " />
<polygon stroke="black" stroke-width="1" fill="rgb(204, 204, 204)" fill-opacity="0" points="944.000,484.000 944.000,636.000 1007.000,602.000 1006.000,447.000 " />
<polygon stroke="black" stroke-width="1" fill="rgb(204, 204, 204)" fill-opacity="0" points="1460.000,146.000 1547.000,142.000 1547.000,14.000 1455.000,17.000 " />
<polygon stroke="black" stroke-width="1" fill="rgb(204, 204, 204)" fill-opacity="0" points="1140.000,228.000 1214.000,198.000 1194.000,69.000 1116.000,98.000 " />
<polygon stroke="black" stroke-width="1" fill="rgb(204, 204, 204)" fill-opacity="0" points="1375.000,156.000 1460.000,146.000 1455.000,17.000 1364.000,27.000 " />
<polygon stroke="black" stroke-width="1" fill="rgb(204, 204, 204)" fill-opacity="0" points="4045.000,3203.000 3534.000,3182.000 3540.000,3937.000 3976.000,3968.000 " />
<polygon stroke="black" stroke-width="1" fill="rgb(204, 204, 204)" fill-opacity="0" points="1276.000,1116.000 1225.000,1136.000 1338.000,1517.000 1369.000,1506.000 " />
<polygon stroke="black" stroke-width="1" fill="rgb(204, 204, 204)" fill-opacity="0" points="1382.000,1086.000 1328.000,1098.000 1401.000,1496.000 1437.000,1488.000 " />
<polygon stroke="black" stroke-width="1" fill="rgb(204, 204, 204)" fill-opacity="0" points="1546.000,1066.000 1492.000,1067.000 1509.000,1480.000 1546.000,1479.000 " />
<polygon stroke="black" stroke-width="1" fill="rgb(204, 204, 204)" fill-opacity="0" points="1328.000,1098.000 1276.000,1116.000 1369.000,1506.000 1401.000,1496.000 " />
<polygon stroke="black" stroke-width="1" fill="rgb(204, 204, 204)" fill-opacity="0" points="1492.000,1067.000 1437.000,1075.000 1473.000,1482.000 1509.000,1480.000 " />
<polygon stroke="black" stroke-width="1" fill="rgb(204, 204, 204)" fill-opacity="0" points="1302.000,324.000 1310.000,485.000 1390.000,467.000 1382.000,306.000 " />
<polygon stroke="black" stroke-width="1" fill="rgb(204, 204, 204)" fill-opacity="0" points="1465.000,296.000 1470.000,456.000 1546.000,452.000 1546.000,291.000 " />
<polygon stroke="black" stroke-width="1" fill="rgb(204, 204, 204)" fill-opacity="0" points="1075.000,411.000 1078.000,568.000 1151.000,536.000 1145.000,378.000 " />
<polygon stroke="black" stroke-width="1" fill="rgb(204, 204, 204)" fill-opacity="0" points="1145.000,378.000 1151.000,536.000 1230.000,509.000 1221.000,348.000 " />
<polygon stroke="black" stroke-width="1" fill="rgb(204, 204, 204)" fill-opacity="0" points="1225.000,1136.000 1179.000,1158.000 1308.000,1531.000 1338.000,1517.000 " />
<polygon stroke="black" stroke-width="1" fill="rgb(204, 204, 204)" fill-opacity="0" points="1382.000,306.000 1390.000,467.000 1470.000,456.000 1465.000,296.000 " />
<polygon stroke="black" stroke-width="1" fill="rgb(204, 204, 204)" fill-opacity="0" points="1437.000,1075.000 1382.000,1086.000 1437.000,1488.000 1473.000,1482.000 " />
<polygon stroke="black" stroke-width="1" fill="rgb(204, 204, 204)" fill-opacity="0" points="1221.000,348.000 1230.000,509.000 1310.000,485.000 1302.000,324.000 " />
<polygon stroke="black" stroke-width="1" fill="rgb(204, 204, 204)" fill-opacity="0" points="940.000,336.000 1002.000,301.000 982.000,172.000 923.000,214.000 " />
<polygon stroke="black" stroke-width="1" fill="rgb(204, 204, 204)" fill-opacity="0" points="1179.000,1158.000 1136.000,1180.000 1281.000,1547.000 1308.000,1531.000 " />
<polygon stroke="black" stroke-width="1" fill="rgb(204, 204, 204)" fill-opacity="0" points="1292.000,172.000 1375.000,156.000 1364.000,27.000 1277.000,46.000 " />
<polygon stroke="black" stroke-width="1" fill="rgb(204, 204, 204)" fill-opacity="0" points="1006.000,447.000 1007.000,602.000 1078.000,568.000 1075.000,411.000 " />
<polygon stroke="black" stroke-width="1" fill="rgb(204, 204, 204)" fill-opacity="0" points="1214.000,198.000 1292.000,172.000 1277.000,46.000 1194.000,69.000 " />
<polygon stroke="black" stroke-width="1" fill="rgb(204, 204, 204)" fill-opacity="0" points="1904.000,2127.000 1886.000,2184.000 2044.000,2204.000 2058.000,2172.000 " />
<polygon stroke="black" stroke-width="1" fill="rgb(204, 204, 204)" fill-opacity="0" points="1904.000,2363.000 2058.000,2299.000 2044.000,2269.000 1884.000,2304.000 " />
<polygon stroke="black" stroke-width="1" fill="rgb(204, 204, 204)" fill-opacity="0" points="1938.000,2075.000 1904.000,2127.000 2058.000,2172.000 2074.000,2142.000 " />
<polygon stroke="black" stroke-width="1" fill="rgb(204, 204, 204)" fill-opacity="0" points="1936.000,2416.000 2071.000,2329.000 2058.000,2299.000 1904.000,2363.000 " />
<polygon stroke="black" stroke-width="1" fill="rgb(204, 204, 204)" fill-opacity="0" points="1884.000,2304.000 2044.000,2269.000 2041.000,2234.000 1874.000,2246.000 " />
<polygon stroke="black" stroke-width="1" fill="rgb(204, 204, 204)" fill-opacity="0" points="1981.000,2027.000 1938.000,2075.000 2074.000,2142.000 2099.000,2121.000 " />
<polygon stroke="black" stroke-width="1" fill="rgb(204, 204, 204)" fill-opacity="0" points="1978.000,2461.000 2091.000,2354.000 2071.000,2329.000 1936.000,2416.000 " />
<polygon stroke="black" stroke-width="1" fill="rgb(204, 204, 204)" fill-opacity="0" points="2031.000,1993.000 1981.000,2027.000 2099.000,2121.000 2123.000,2100.000 " />
<polygon stroke="black" stroke-width="1" fill="rgb(204, 204, 204)" fill-opacity="0" points="2029.000,2497.000 2121.000,2376.000 2091.000,2354.000 1978.000,2461.000 " />
<polygon stroke="black" stroke-width="1" fill="rgb(204, 204, 204)" fill-opacity="0" points="2091.000,1962.000 2031.000,1993.000 2123.000,2100.000 2153.000,2085.000 " />
<polygon stroke="black" stroke-width="1" fill="rgb(204, 204, 204)" fill-opacity="0" points="2088.000,2529.000 2150.000,2389.000 2121.000,2376.000 2029.000,2497.000 " />
<polygon stroke="black" stroke-width="1" fill="rgb(204, 204, 204)" fill-opacity="0" points="2156.000,1945.000 2091.000,1962.000 2153.000,2085.000 2190.000,2077.000 " />
<polygon stroke="black" stroke-width="1" fill="rgb(204, 204, 204)" fill-opacity="0" points="2151.000,2548.000 2183.000,2399.000 2150.000,2389.000 2088.000,2529.000 " />
<polygon stroke="black" stroke-width="1" fill="rgb(204, 204, 204)" fill-opacity="0" points="2222.000,1938.000 2156.000,1945.000 2190.000,2077.000 2220.000,2074.000 " />
<polygon stroke="black" stroke-width="1" fill="rgb(204, 204, 204)" fill-opacity="0" points="2216.000,2553.000 2218.000,2402.000 2183.000,2399.000 2151.000,2548.000 " />
<polygon stroke="black" stroke-width="1" fill="rgb(204, 204, 204)" fill-opacity="0" points="1886.000,2184.000 1874.000,2246.000 2041.000,2234.000 2044.000,2204.000 " />
<polygon stroke="black" stroke-width="1" fill="rgb(204, 204, 204)" fill-opacity="0" points="2074.000,2142.000 2058.000,2172.000 2131.000,2212.000 2136.000,2195.000 " />
<polygon stroke="black" stroke-width="1" fill="rgb(204, 204, 204)" fill-opacity="0" points="2121.000,2376.000 2167.000,2319.000 2150.000,2310.000 2091.000,2354.000 " />
<polygon stroke="black" stroke-width="1" fill="rgb(204, 204, 204)" fill-opacity="0" points="2220.000,2074.000 2190.000,2077.000 2203.000,2159.000 2220.000,2155.000 " />
<polygon stroke="black" stroke-width="1" fill="rgb(204, 204, 204)" fill-opacity="0" points="2099.000,2121.000 2074.000,2142.000 2136.000,2195.000 2150.000,2182.000 " />
<polygon stroke="black" stroke-width="1" fill="rgb(204, 204, 204)" fill-opacity="0" points="2150.000,2389.000 2182.000,2325.000 2167.000,2319.000 2121.000,2376.000 " />
<polygon stroke="black" stroke-width="1" fill="rgb(204, 204, 204)" fill-opacity="0" points="2044.000,2204.000 2041.000,2234.000 2121.000,2247.000 2125.000,2229.000 " />
<polygon stroke="black" stroke-width="1" fill="rgb(204, 204, 204)" fill-opacity="0" points="2183.000,2399.000 2198.000,2332.000 2182.000,2325.000 2150.000,2389.000 " />
<polygon stroke="black" stroke-width="1" fill="rgb(204, 204, 204)" fill-opacity="0" points="2058.000,2172.000 2044.000,2204.000 2125.000,2229.000 2131.000,2212.000 " />
<polygon stroke="black" stroke-width="1" fill="rgb(204, 204, 204)" fill-opacity="0" points="2218.000,2402.000 2218.000,2336.000 2198.000,2332.000 2183.000,2399.000 " />
<polygon stroke="black" stroke-width="1" fill="rgb(204, 204, 204)" fill-opacity="0" points="2044.000,2269.000 2125.000,2264.000 2121.000,2247.000 2041.000,2234.000 " />
<polygon stroke="black" stroke-width="1" fill="rgb(204, 204, 204)" fill-opacity="0" points="2058.000,2299.000 2131.000,2279.000 2125.000,2264.000 2044.000,2269.000 " />
<polygon stroke="black" stroke-width="1" fill="rgb(204, 204, 204)" fill-opacity="0" points="2123.000,2100.000 2099.000,2121.000 2150.000,2182.000 2167.000,2172.000 " />
<polygon stroke="black" stroke-width="1" fill="rgb(204, 204, 204)" fill-opacity="0" points="2071.000,2329.000 2140.000,2297.000 2131.000,2279.000 2058.000,2299.000 " />
<polygon stroke="black" stroke-width="1" fill="rgb(204, 204, 204)" fill-opacity="0" points="2153.000,2085.000 2123.000,2100.000 2167.000,2172.000 2183.000,2162.000 " />
<polygon stroke="black" stroke-width="1" fill="rgb(204, 204, 204)" fill-opacity="0" points="2091.000,2354.000 2150.000,2310.000 2140.000,2297.000 2071.000,2329.000 " />
<polygon stroke="black" stroke-width="1" fill="rgb(204, 204, 204)" fill-opacity="0" points="2190.000,2077.000 2153.000,2085.000 2183.000,2162.000 2203.000,2159.000 " />
<polygon stroke="black" stroke-width="1" fill="rgb(204, 204, 204)" fill-opacity="0" points="2167.000,2319.000 2203.000,2270.000 2198.000,2269.000 2150.000,2310.000 " />
<polygon stroke="black" stroke-width="1" fill="rgb(204, 204, 204)" fill-opacity="0" points="2220.000,2155.000 2203.000,2159.000 2214.000,2222.000 2218.000,2221.000 " />
<polygon stroke="black" stroke-width="1" fill="rgb(204, 204, 204)" fill-opacity="0" points="2182.000,2325.000 2208.000,2272.000 2203.000,2270.000 2167.000,2319.000 " />
<polygon stroke="black" stroke-width="1" fill="rgb(204, 204, 204)" fill-opacity="0" points="2125.000,2229.000 2121.000,2247.000 2190.000,2249.000 2190.000,2244.000 " />
<polygon stroke="black" stroke-width="1" fill="rgb(204, 204, 204)" fill-opacity="0" points="2136.000,2195.000 2131.000,2212.000 2193.000,2239.000 2195.000,2232.000 " />
<polygon stroke="black" stroke-width="1" fill="rgb(204, 204, 204)" fill-opacity="0" points="2198.000,2332.000 2214.000,2276.000 2208.000,2272.000 2182.000,2325.000 " />
<polygon stroke="black" stroke-width="1" fill="rgb(204, 204, 204)" fill-opacity="0" points="2150.000,2182.000 2136.000,2195.000 2195.000,2232.000 2198.000,2230.000 " />
<polygon stroke="black" stroke-width="1" fill="rgb(204, 204, 204)" fill-opacity="0" points="2218.000,2336.000 2220.000,2276.000 2214.000,2276.000 2198.000,2332.000 " />
<polygon stroke="black" stroke-width="1" fill="rgb(204, 204, 204)" fill-opacity="0" points="2131.000,2212.000 2125.000,2229.000 2190.000,2244.000 2193.000,2239.000 " />
<polygon stroke="black" stroke-width="1" fill="rgb(204, 204, 204)" fill-opacity="0" points="2125.000,2264.000 2190.000,2255.000 2190.000,2249.000 2121.000,2247.000 " />
<polygon stroke="black" stroke-width="1" fill="rgb(204, 204, 204)" fill-opacity="0" points="2131.000,2279.000 2193.000,2259.000 2190.000,2255.000 2125.000,2264.000 " />
<polygon stroke="black" stroke-width="1" fill="rgb(204, 204, 204)" fill-opacity="0" points="2167.000,2172.000 2150.000,2182.000 2198.000,2230.000 2203.000,2227.000 " />
<polygon stroke="black" stroke-width="1" fill="rgb(204, 204, 204)" fill-opacity="0" points="2140.000,2297.000 2195.000,2264.000 2193.000,2259.000 2131.000,2279.000 " />
<polygon stroke="black" stroke-width="1" fill="rgb(204, 204, 204)" fill-opacity="0" points="2183.000,2162.000 2167.000,2172.000 2203.000,2227.000 2208.000,2222.000 " />
<polygon stroke="black" stroke-width="1" fill="rgb(204, 204, 204)" fill-opacity="0" points="2150.000,2310.000 2198.000,2269.000 2195.000,2264.000 2140.000,2297.000 " />
<polygon stroke="black" stroke-width="1" fill="rgb(204, 204, 204)" fill-opacity="0" points="2203.000,2159.000 2183.000,2162.000 2208.000,2222.000 2214.000,2222.000 " />
<polygon stroke="black" stroke-width="1" fill="rgb(204, 204, 204)" fill-opacity="0" points="2195.000,2232.000 2193.000,2239.000 2190.000,2244.000 2190.000,2249.000 2220.000,2249.000 2218.000,2221.000 2214.000,2222.000 2208.000,2222.000 2203.000,2227.000 2198.000,2230.000 " />
<polygon stroke="black" stroke-width="1" fill="rgb(204, 204, 204)" fill-opacity="0" points="2190.000,2249.000 2190.000,2255.000 2193.000,2259.000 2195.000,2264.000 2198.000,2269.000 2203.000,2270.000 2208.000,2272.000 2214.000,2276.000 2220.000,2276.000 2220.000,2249.000 " />
<polygon stroke="black" stroke-width="1" fill="rgb(204, 204, 204)" fill-opacity="0" points="1086.000,1215.000 1136.000,1180.000 944.000,636.000 860.000,690.000 " />
<polygon stroke="black" stroke-width="1" fill="rgb(204, 204, 204)" fill-opacity="0" points="924.000,1346.000 966.000,1305.000 685.000,807.000 631.000,842.000 " />
<polygon stroke="black" stroke-width="1" fill="rgb(204, 204, 204)" fill-opacity="0" points="1040.000,1246.000 1086.000,1215.000 860.000,690.000 793.000,736.000 " />
<polygon stroke="black" stroke-width="1" fill="rgb(204, 204, 204)" fill-opacity="0" points="1003.000,1274.000 1040.000,1246.000 793.000,736.000 741.000,769.000 " />
<polygon stroke="black" stroke-width="1" fill="rgb(204, 204, 204)" fill-opacity="0" points="966.000,1305.000 1003.000,1274.000 741.000,769.000 685.000,807.000 " />
<polygon stroke="black" stroke-width="1" fill="rgb(204, 204, 204)" fill-opacity="0" points="1177.000,1630.000 1201.000,1606.000 1003.000,1274.000 966.000,1305.000 " />
<polygon stroke="black" stroke-width="1" fill="rgb(204, 204, 204)" fill-opacity="0" points="1201.000,1606.000 1229.000,1585.000 1040.000,1246.000 1003.000,1274.000 " />
<polygon stroke="black" stroke-width="1" fill="rgb(204, 204, 204)" fill-opacity="0" points="1229.000,1585.000 1253.000,1565.000 1086.000,1215.000 1040.000,1246.000 " />
<polygon stroke="black" stroke-width="1" fill="rgb(204, 204, 204)" fill-opacity="0" points="1153.000,1656.000 1177.000,1630.000 966.000,1305.000 924.000,1346.000 " />
<polygon stroke="black" stroke-width="1" fill="rgb(204, 204, 204)" fill-opacity="0" points="1253.000,1565.000 1281.000,1547.000 1136.000,1180.000 1086.000,1215.000 " />
<polygon stroke="black" stroke-width="1" fill="rgb(204, 204, 204)" fill-opacity="0" points="1007.000,602.000 944.000,636.000 1136.000,1180.000 1179.000,1158.000 " />
<polygon stroke="black" stroke-width="1" fill="rgb(204, 204, 204)" fill-opacity="0" points="1390.000,467.000 1310.000,485.000 1382.000,1086.000 1437.000,1075.000 " />
<polygon stroke="black" stroke-width="1" fill="rgb(204, 204, 204)" fill-opacity="0" points="1078.000,568.000 1007.000,602.000 1179.000,1158.000 1225.000,1136.000 " />
<polygon stroke="black" stroke-width="1" fill="rgb(204, 204, 204)" fill-opacity="0" points="1470.000,456.000 1390.000,467.000 1437.000,1075.000 1492.000,1067.000 " />
<polygon stroke="black" stroke-width="1" fill="rgb(204, 204, 204)" fill-opacity="0" points="1230.000,509.000 1151.000,536.000 1276.000,1116.000 1328.000,1098.000 " />
<polygon stroke="black" stroke-width="1" fill="rgb(204, 204, 204)" fill-opacity="0" points="1546.000,452.000 1470.000,456.000 1492.000,1067.000 1546.000,1066.000 " />
<polygon stroke="black" stroke-width="1" fill="rgb(204, 204, 204)" fill-opacity="0" points="1310.000,485.000 1230.000,509.000 1328.000,1098.000 1382.000,1086.000 " />
<polygon stroke="black" stroke-width="1" fill="rgb(204, 204, 204)" fill-opacity="0" points="1151.000,536.000 1078.000,568.000 1225.000,1136.000 1276.000,1116.000 " />
<polygon stroke="black" stroke-width="1" fill="rgb(204, 204, 204)" fill-opacity="0" points="1068.000,264.000 1140.000,228.000 1116.000,98.000 1047.000,132.000 " />
<polygon stroke="black" stroke-width="1" fill="rgb(204, 204, 204)" fill-opacity="0" points="1068.000,264.000 1047.000,132.000 982.000,172.000 1002.000,301.000 " />
<polygon stroke="black" stroke-width="1" fill="rgb(204, 204, 204)" fill-opacity="0" points="598.000,660.000 696.000,643.000 655.000,519.000 514.000,515.000 " />
<polygon stroke="black" stroke-width="1" fill="rgb(204, 204, 204)" fill-opacity="0" points="696.000,643.000 772.000,596.000 751.000,458.000 655.000,519.000 " />
<polygon stroke="black" stroke-width="1" fill="rgb(204, 204, 204)" fill-opacity="0" points="772.000,596.000 855.000,542.000 847.000,396.000 751.000,458.000 " />
<polygon stroke="black" stroke-width="1" fill="rgb(204, 204, 204)" fill-opacity="0" points="855.000,542.000 944.000,484.000 940.000,336.000 847.000,396.000 " />
<polygon stroke="black" stroke-width="1" fill="rgb(204, 204, 204)" fill-opacity="0" points="685.000,807.000 598.000,660.000 536.000,701.000 631.000,842.000 " />
<polygon stroke="black" stroke-width="1" fill="rgb(204, 204, 204)" fill-opacity="0" points="598.000,660.000 514.000,515.000 477.000,540.000 442.000,563.000 536.000,701.000 " />
<polygon stroke="black" stroke-width="1" fill="rgb(204, 204, 204)" fill-opacity="0" points="860.000,690.000 944.000,636.000 944.000,484.000 855.000,542.000 " />
<polygon stroke="black" stroke-width="1" fill="rgb(204, 204, 204)" fill-opacity="0" points="514.000,515.000 655.000,519.000 621.000,441.000 " />
<polygon stroke="black" stroke-width="1" fill="rgb(204, 204, 204)" fill-opacity="0" points="2164.000,4080.000 2158.000,3988.000 1521.000,3988.000 1521.000,4080.000 " />
<polygon stroke="black" stroke-width="1" fill="rgb(204, 204, 204)" fill-opacity="0" points="809.000,1322.000 805.000,1257.000 429.000,1313.000 " />
<polygon stroke="black" stroke-width="1" fill="rgb(204, 204, 204)" fill-opacity="0" points="805.000,1257.000 784.000,1192.000 429.000,1313.000 " />
<polygon stroke="black" stroke-width="1" fill="rgb(204, 204, 204)" fill-opacity="0" points="784.000,1192.000 749.000,1133.000 429.000,1313.000 " />
<polygon stroke="black" stroke-width="1" fill="rgb(204, 204, 204)" fill-opacity="0" points="749.000,1133.000 703.000,1077.000 429.000,1313.000 " />
<polygon stroke="black" stroke-width="1" fill="rgb(204, 204, 204)" fill-opacity="0" points="703.000,1077.000 649.000,1032.000 429.000,1313.000 " />
<polygon stroke="black" stroke-width="1" fill="rgb(204, 204, 204)" fill-opacity="0" points="649.000,1032.000 585.000,1001.000 429.000,1313.000 " />
<polygon stroke="black" stroke-width="1" fill="rgb(204, 204, 204)" fill-opacity="0" points="585.000,1001.000 515.000,978.000 429.000,1313.000 " />
<polygon stroke="black" stroke-width="1" fill="rgb(204, 204, 204)" fill-opacity="0" points="515.000,978.000 427.000,964.000 429.000,1313.000 " />
<polygon stroke="black" stroke-width="1" fill="rgb(204, 204, 204)" fill-opacity="0" points="823.000,1717.000 809.000,1322.000 429.000,1313.000 430.000,1728.000 " />
<polygon stroke="black" stroke-width="1" fill="rgb(204, 204, 204)" fill-opacity="0" points="4045.000,3203.000 3976.000,3968.000 4069.000,3534.000 " />
<polygon stroke="black" stroke-width="1" fill="rgb(204, 204, 204)" fill-opacity="0" points="2728.000,3863.000 2158.000,3988.000 2806.000,3988.000 " />
<polygon stroke="black" stroke-width="1" fill="rgb(204, 204, 204)" fill-opacity="0" points="3534.000,3182.000 4045.000,3203.000 3987.000,1819.000 3524.000,1804.000 " />
<polygon stroke="black" stroke-width="1" fill="rgb(204, 204, 204)" fill-opacity="0" points="3893.000,9.000 3987.000,1819.000 4023.000,8.000 " />
<polygon stroke="black" stroke-width="1" fill="rgb(204, 204, 204)" fill-opacity="0" points="1795.000,2862.000 1751.000,2635.000 1704.000,2415.000 1680.000,2303.000 1658.000,2190.000 1635.000,2083.000 1613.000,1971.000 1589.000,1862.000 1566.000,1750.000 1543.000,1635.000 1521.000,1518.000 1521.000,2815.000 " />
<polygon stroke="black" stroke-width="1" fill="rgb(204, 204, 204)" fill-opacity="0" points="3383.000,3173.000 3388.000,3928.000 3465.000,3932.000 3461.000,3178.000 " />
<polygon stroke="black" stroke-width="1" fill="rgb(204, 204, 204)" fill-opacity="0" points="751.000,458.000 847.000,396.000 834.000,343.000 737.000,411.000 " />
<polygon stroke="black" stroke-width="1" fill="rgb(204, 204, 204)" fill-opacity="0" points="847.000,396.000 940.000,336.000 923.000,214.000 834.000,343.000 " />
<polygon stroke="black" stroke-width="1" fill="rgb(204, 204, 204)" fill-opacity="0" points="621.000,441.000 655.000,519.000 751.000,458.000 737.000,411.000 " />
<polygon stroke="black" stroke-width="1" fill="rgb(204, 204, 204)" fill-opacity="0" points="737.000,411.000 834.000,343.000 923.000,214.000 621.000,441.000 " />
<polygon stroke="black" stroke-width="1" fill="rgb(204, 204, 204)" fill-opacity="0" points="3987.000,1819.000 3893.000,9.000 3513.000,23.000 3524.000,1804.000 " />
<polygon stroke="black" stroke-width="1" fill="rgb(204, 204, 204)" fill-opacity="0" points="793.000,736.000 860.000,690.000 855.000,542.000 772.000,596.000 " />
<polygon stroke="black" stroke-width="1" fill="rgb(204, 204, 204)" fill-opacity="0" points="741.000,769.000 793.000,736.000 772.000,596.000 696.000,643.000 " />
<polygon stroke="black" stroke-width="1" fill="rgb(204, 204, 204)" fill-opacity="0" points="685.000,807.000 741.000,769.000 696.000,643.000 598.000,660.000 " />
<polygon stroke="black" stroke-width="1" fill="rgb(204, 204, 204)" fill-opacity="0" points="1002.000,301.000 1006.000,447.000 1075.000,411.000 1068.000,264.000 " />
<polygon stroke="black" stroke-width="1" fill="rgb(204, 204, 204)" fill-opacity="0" points="1214.000,198.000 1221.000,348.000 1302.000,324.000 1292.000,172.000 " />
<polygon stroke="black" stroke-width="1" fill="rgb(204, 204, 204)" fill-opacity="0" points="1375.000,156.000 1382.000,306.000 1465.000,296.000 1460.000,146.000 " />
<polygon stroke="black" stroke-width="1" fill="rgb(204, 204, 204)" fill-opacity="0" points="1140.000,228.000 1145.000,378.000 1221.000,348.000 1214.000,198.000 " />
<polygon stroke="black" stroke-width="1" fill="rgb(204, 204, 204)" fill-opacity="0" points="1068.000,264.000 1075.000,411.000 1145.000,378.000 1140.000,228.000 " />
<polygon stroke="black" stroke-width="1" fill="rgb(204, 204, 204)" fill-opacity="0" points="1460.000,146.000 1465.000,296.000 1546.000,291.000 1547.000,142.000 " />
<polygon stroke="black" stroke-width="1" fill="rgb(204, 204, 204)" fill-opacity="0" points="1292.000,172.000 1302.000,324.000 1382.000,306.000 1375.000,156.000 " />
<polygon stroke="black" stroke-width="1" fill="rgb(204, 204, 204)" fill-opacity="0" points="940.000,336.000 944.000,484.000 1006.000,447.000 1002.000,301.000 " />
<polygon stroke="black" stroke-width="1" fill="rgb(204, 204, 204)" fill-opacity="0" points="1580.000,1628.000 1555.000,1514.000 1521.000,1518.000 1543.000,1635.000 " />
<polygon stroke="black" stroke-width="1" fill="rgb(204, 204, 204)" fill-opacity="0" points="1635.000,1849.000 1608.000,1737.000 1566.000,1750.000 1589.000,1862.000 " />
<polygon stroke="black" stroke-width="1" fill="rgb(204, 204, 204)" fill-opacity="0" points="1689.000,2065.000 1662.000,1959.000 1613.000,1971.000 1635.000,2083.000 " />
<polygon stroke="black" stroke-width="1" fill="rgb(204, 204, 204)" fill-opacity="0" points="1740.000,2284.000 1716.000,2177.000 1658.000,2190.000 1680.000,2303.000 " />
<polygon stroke="black" stroke-width="1" fill="rgb(204, 204, 204)" fill-opacity="0" points="1521.000,2815.000 1521.000,3795.000 2619.000,3722.000 2233.000,3296.000 1795.000,2862.000 " />
<polygon stroke="black" stroke-width="1" fill="rgb(204, 204, 204)" fill-opacity="0" points="3363.000,24.000 3383.000,3173.000 3461.000,3178.000 3451.000,1800.000 3440.000,24.000 " />
<polygon stroke="black" stroke-width="1" fill="rgb(204, 204, 204)" fill-opacity="0" points="2829.000,24.000 2829.000,3181.000 2922.000,3181.000 2924.000,24.000 " />
<polygon stroke="black" stroke-width="1" fill="rgb(204, 204, 204)" fill-opacity="0" points="2924.000,24.000 2922.000,3181.000 3029.000,3162.000 3019.000,24.000 " />
<polygon stroke="black" stroke-width="1" fill="rgb(204, 204, 204)" fill-opacity="0" points="3019.000,24.000 3029.000,3162.000 3125.000,3163.000 3110.000,24.000 " />
<polygon stroke="black" stroke-width="1" fill="rgb(204, 204, 204)" fill-opacity="0" points="3110.000,24.000 3125.000,3163.000 3216.000,3166.000 3197.000,24.000 " />
<polygon stroke="black" stroke-width="1" fill="rgb(204, 204, 204)" fill-opacity="0" points="3197.000,24.000 3216.000,3166.000 3300.000,3169.000 3281.000,24.000 " />
<polygon stroke="black" stroke-width="1" fill="rgb(204, 204, 204)" fill-opacity="0" points="3281.000,24.000 3300.000,3169.000 3383.000,3173.000 3363.000,24.000 " />
<polygon stroke="black" stroke-width="1" fill="rgb(204, 204, 204)" fill-opacity="0" points="3534.000,3182.000 3524.000,1804.000 3451.000,1800.000 3461.000,3178.000 " />
<polygon stroke="black" stroke-width="1" fill="rgb(204, 204, 204)" fill-opacity="0" points="3440.000,24.000 3451.000,1800.000 3524.000,1804.000 3513.000,23.000 " />
<polygon stroke="black" stroke-width="1" fill="rgb(204, 204, 204)" fill-opacity="0" points="1026.000,1767.000 1157.000,1780.000 1133.000,1886.000 1021.000,1866.000 " />
<polygon stroke="black" stroke-width="1" fill="rgb(204, 204, 204)" fill-opacity="0" points="565.000,1767.000 738.000,2666.000 663.000,2850.000 493.000,2087.000 " />
<polygon stroke="black" stroke-width="1" fill="rgb(204, 204, 204)" fill-opacity="0" points="565.000,1767.000 1026.000,1767.000 1021.000,1866.000 1013.000,1930.000 994.000,2003.000 973.000,2065.000 738.000,2666.000 " />
<polygon stroke="black" stroke-width="1" fill="rgb(204, 204, 204)" fill-opacity="0" points="429.000,1771.000 565.000,1767.000 493.000,2087.000 358.000,2079.000 " />
<polygon stroke="black" stroke-width="1" fill="rgb(204, 204, 204)" fill-opacity="0" points="738.000,2666.000 810.000,2689.000 732.000,2869.000 663.000,2850.000 " />
<polygon stroke="black" stroke-width="1" fill="rgb(204, 204, 204)" fill-opacity="0" points="358.000,2079.000 493.000,2087.000 342.000,2293.000 237.000,2285.000 " />
<polygon stroke="black" stroke-width="1" fill="rgb(204, 204, 204)" fill-opacity="0" points="322.000,3543.000 263.000,3584.000 184.000,3588.000 155.000,3584.000 134.000,3577.000 113.000,3566.000 108.000,3547.000 108.000,3533.000 342.000,2293.000 " />
<polygon stroke="black" stroke-width="1" fill="rgb(204, 204, 204)" fill-opacity="0" points="493.000,2087.000 663.000,2850.000 343.000,3542.000 322.000,3543.000 342.000,2293.000 " />
<polygon stroke="black" stroke-width="1" fill="rgb(204, 204, 204)" fill-opacity="0" points="663.000,2850.000 732.000,2869.000 371.000,3570.000 343.000,3542.000 " />
<polygon stroke="black" stroke-width="1" fill="rgb(204, 204, 204)" fill-opacity="0" points="59.000,3547.000 108.000,3533.000 108.000,3547.000 71.000,3572.000 " />
<polygon stroke="black" stroke-width="1" fill="rgb(204, 204, 204)" fill-opacity="0" points="71.000,3572.000 108.000,3547.000 113.000,3566.000 85.000,3590.000 " />
<polygon stroke="black" stroke-width="1" fill="rgb(204, 204, 204)" fill-opacity="0" points="85.000,3590.000 113.000,3566.000 134.000,3577.000 112.000,3607.000 " />
<polygon stroke="black" stroke-width="1" fill="rgb(204, 204, 204)" fill-opacity="0" points="112.000,3607.000 134.000,3577.000 155.000,3584.000 146.000,3611.000 " />
<polygon stroke="black" stroke-width="1" fill="rgb(204, 204, 204)" fill-opacity="0" points="146.000,3611.000 155.000,3584.000 184.000,3588.000 179.000,3620.000 " />
<polygon stroke="black" stroke-width="1" fill="rgb(204, 204, 204)" fill-opacity="0" points="342.000,2293.000 108.000,3533.000 59.000,3547.000 237.000,2285.000 " />
<polygon stroke="black" stroke-width="1" fill="rgb(204, 204, 204)" fill-opacity="0" points="343.000,3542.000 329.000,3555.000 322.000,3543.000 " />
<polygon stroke="black" stroke-width="1" fill="rgb(204, 204, 204)" fill-opacity="0" points="329.000,3555.000 321.000,3564.000 322.000,3543.000 " />
<polygon stroke="black" stroke-width="1" fill="rgb(204, 204, 204)" fill-opacity="0" points="321.000,3564.000 308.000,3575.000 322.000,3543.000 " />
<polygon stroke="black" stroke-width="1" fill="rgb(204, 204, 204)" fill-opacity="0" points="308.000,3575.000 296.000,3577.000 322.000,3543.000 " />
<polygon stroke="black" stroke-width="1" fill="rgb(204, 204, 204)" fill-opacity="0" points="296.000,3577.000 276.000,3584.000 322.000,3543.000 " />
<polygon stroke="black" stroke-width="1" fill="rgb(204, 204, 204)" fill-opacity="0" points="276.000,3584.000 263.000,3584.000 322.000,3543.000 " />
<polygon stroke="black" stroke-width="1" fill="rgb(204, 204, 204)" fill-opacity="0" points="275.000,3613.000 263.000,3584.000 276.000,3584.000 288.000,3611.000 " />
<polygon stroke="black" stroke-width="1" fill="rgb(204, 204, 204)" fill-opacity="0" points="288.000,3611.000 276.000,3584.000 296.000,3577.000 308.000,3607.000 " />
<polygon stroke="black" stroke-width="1" fill="rgb(204, 204, 204)" fill-opacity="0" points="308.000,3607.000 296.000,3577.000 308.000,3575.000 328.000,3601.000 " />
<polygon stroke="black" stroke-width="1" fill="rgb(204, 204, 204)" fill-opacity="0" points="328.000,3601.000 308.000,3575.000 321.000,3564.000 347.000,3590.000 " />
<polygon stroke="black" stroke-width="1" fill="rgb(204, 204, 204)" fill-opacity="0" points="347.000,3590.000 321.000,3564.000 329.000,3555.000 364.000,3580.000 " />
<polygon stroke="black" stroke-width="1" fill="rgb(204, 204, 204)" fill-opacity="0" points="364.000,3580.000 329.000,3555.000 343.000,3542.000 371.000,3570.000 " />
<polygon stroke="black" stroke-width="1" fill="rgb(204, 204, 204)" fill-opacity="0" points="263.000,3584.000 275.000,3613.000 179.000,3620.000 184.000,3588.000 " />
<polygon stroke="black" stroke-width="1" fill="rgb(204, 204, 204)" fill-opacity="0" points="1066.000,2081.000 973.000,2065.000 994.000,2003.000 1092.000,2018.000 " />
<polygon stroke="black" stroke-width="1" fill="rgb(204, 204, 204)" fill-opacity="0" points="1092.000,2018.000 994.000,2003.000 1013.000,1930.000 1116.000,1949.000 " />
<polygon stroke="black" stroke-width="1" fill="rgb(204, 204, 204)" fill-opacity="0" points="1116.000,1949.000 1013.000,1930.000 1021.000,1866.000 1133.000,1886.000 " />
<polygon stroke="black" stroke-width="1" fill="rgb(204, 204, 204)" fill-opacity="0" points="1066.000,2081.000 810.000,2689.000 738.000,2666.000 973.000,2065.000 " />
<polygon stroke="black" stroke-width="1" fill="rgb(204, 204, 204)" fill-opacity="0" points="1768.000,2393.000 1740.000,2284.000 1680.000,2303.000 1704.000,2415.000 " />
<polygon stroke="black" stroke-width="1" fill="rgb(204, 204, 204)" fill-opacity="0" points="1716.000,2177.000 1689.000,2065.000 1635.000,2083.000 1658.000,2190.000 " />
<polygon stroke="black" stroke-width="1" fill="rgb(204, 204, 204)" fill-opacity="0" points="1662.000,1959.000 1635.000,1849.000 1589.000,1862.000 1613.000,1971.000 " />
<polygon stroke="black" stroke-width="1" fill="rgb(204, 204, 204)" fill-opacity="0" points="1608.000,1737.000 1580.000,1628.000 1543.000,1635.000 1566.000,1750.000 " />
<polygon stroke="black" stroke-width="1" fill="rgb(204, 204, 204)" fill-opacity="0" points="1521.000,3795.000 1521.000,3988.000 2158.000,3988.000 2728.000,3863.000 2619.000,3722.000 " />
<polygon stroke="black" stroke-width="1" fill="rgb(204, 204, 204)" fill-opacity="0" points="3069.000,4049.000 2806.000,3988.000 2158.000,3988.000 2164.000,4080.000 " />
<polygon stroke="black" stroke-width="1" fill="rgb(204, 204, 204)" fill-opacity="0" points="1795.000,2862.000 2233.000,3296.000 2292.000,3272.000 1877.000,2841.000 " />
<polygon stroke="black" stroke-width="1" fill="rgb(204, 204, 204)" fill-opacity="0" points="2233.000,3296.000 2619.000,3722.000 2690.000,3693.000 2292.000,3272.000 " />
<polygon stroke="black" stroke-width="1" fill="rgb(204, 204, 204)" fill-opacity="0" points="2619.000,3722.000 2728.000,3863.000 2760.000,3869.000 2690.000,3693.000 " />
<polygon stroke="black" stroke-width="1" fill="rgb(204, 204, 204)" fill-opacity="0" points="2728.000,3863.000 2806.000,3988.000 3069.000,4049.000 2760.000,3869.000 " />
<polygon stroke="black" stroke-width="1" fill="rgb(204, 204, 204)" fill-opacity="0" points="1795.000,2862.000 1877.000,2841.000 1822.000,2616.000 1751.000,2635.000 " />
<polygon stroke="black" stroke-width="1" fill="rgb(204, 204, 204)" fill-opacity="0" points="1704.000,2415.000 1751.000,2635.000 1822.000,2616.000 1768.000,2393.000 " />
<polygon stroke="black" stroke-width="1" fill="rgb(204, 204, 204)" fill-opacity="0" points="3300.000,3169.000 3383.000,3173.000 3388.000,3928.000 3305.000,3922.000 " />
<polygon stroke="black" stroke-width="1" fill="rgb(204, 204, 204)" fill-opacity="0" points="3216.000,3165.000 3300.000,3169.000 3305.000,3922.000 3220.000,3919.000 " />
<polygon stroke="black" stroke-width="1" fill="rgb(204, 204, 204)" fill-opacity="0" points="3125.000,3162.000 3216.000,3165.000 3220.000,3919.000 3128.000,3915.000 " />
<polygon stroke="black" stroke-width="1" fill="rgb(204, 204, 204)" fill-opacity="0" points="3030.000,3161.000 3125.000,3162.000 3128.000,3915.000 3032.000,3913.000 " />
<polygon stroke="black" stroke-width="1" fill="rgb(204, 204, 204)" fill-opacity="0" points="2923.000,3180.000 3030.000,3161.000 3032.000,3913.000 2931.000,3911.000 " />
<polygon stroke="black" stroke-width="1" fill="rgb(204, 204, 204)" fill-opacity="0" points="3465.000,3932.000 3461.000,3178.000 3534.000,3182.000 3541.000,3937.000 " />
<polygon stroke="black" stroke-width="1" fill="rgb(204, 204, 204)" fill-opacity="0" points="2151.000,485.000 2088.000,447.000 2087.000,602.000 2150.000,638.000 " />
<polygon stroke="black" stroke-width="1" fill="rgb(204, 204, 204)" fill-opacity="0" points="1635.000,146.000 1641.000,17.000 1547.000,14.000 1547.000,142.000 " />
<polygon stroke="black" stroke-width="1" fill="rgb(204, 204, 204)" fill-opacity="0" points="1956.000,228.000 1979.000,98.000 1902.000,68.000 1881.000,198.000 " />
<polygon stroke="black" stroke-width="1" fill="rgb(204, 204, 204)" fill-opacity="0" points="1720.000,156.000 1732.000,27.000 1641.000,17.000 1635.000,146.000 " />
<polygon stroke="black" stroke-width="1" fill="rgb(204, 204, 204)" fill-opacity="0" points="4045.000,3202.000 3976.000,3968.000 3541.000,3937.000 3534.000,3182.000 " />
<polygon stroke="black" stroke-width="1" fill="rgb(204, 204, 204)" fill-opacity="0" points="1818.000,1116.000 1724.000,1505.000 1754.000,1517.000 1868.000,1136.000 " />
<polygon stroke="black" stroke-width="1" fill="rgb(204, 204, 204)" fill-opacity="0" points="1713.000,1085.000 1655.000,1487.000 1691.000,1496.000 1766.000,1098.000 " />
<polygon stroke="black" stroke-width="1" fill="rgb(204, 204, 204)" fill-opacity="0" points="1546.000,1066.000 1546.000,1479.000 1583.000,1479.000 1603.000,1067.000 " />
<polygon stroke="black" stroke-width="1" fill="rgb(204, 204, 204)" fill-opacity="0" points="1766.000,1098.000 1691.000,1496.000 1724.000,1505.000 1818.000,1116.000 " />
<polygon stroke="black" stroke-width="1" fill="rgb(204, 204, 204)" fill-opacity="0" points="1603.000,1067.000 1583.000,1479.000 1620.000,1484.000 1658.000,1076.000 " />
<polygon stroke="black" stroke-width="1" fill="rgb(204, 204, 204)" fill-opacity="0" points="1792.000,323.000 1710.000,306.000 1704.000,467.000 1784.000,485.000 " />
<polygon stroke="black" stroke-width="1" fill="rgb(204, 204, 204)" fill-opacity="0" points="1629.000,296.000 1546.000,291.000 1546.000,452.000 1625.000,456.000 " />
<polygon stroke="black" stroke-width="1" fill="rgb(204, 204, 204)" fill-opacity="0" points="2020.000,411.000 1948.000,378.000 1943.000,536.000 2016.000,568.000 " />
<polygon stroke="black" stroke-width="1" fill="rgb(204, 204, 204)" fill-opacity="0" points="1948.000,378.000 1873.000,348.000 1864.000,508.000 1943.000,536.000 " />
<polygon stroke="black" stroke-width="1" fill="rgb(204, 204, 204)" fill-opacity="0" points="1868.000,1136.000 1754.000,1517.000 1785.000,1531.000 1916.000,1158.000 " />
<polygon stroke="black" stroke-width="1" fill="rgb(204, 204, 204)" fill-opacity="0" points="1710.000,306.000 1629.000,296.000 1625.000,456.000 1704.000,467.000 " />
<polygon stroke="black" stroke-width="1" fill="rgb(204, 204, 204)" fill-opacity="0" points="1658.000,1076.000 1620.000,1484.000 1655.000,1487.000 1713.000,1085.000 " />
<polygon stroke="black" stroke-width="1" fill="rgb(204, 204, 204)" fill-opacity="0" points="1873.000,348.000 1792.000,323.000 1784.000,485.000 1864.000,508.000 " />
<polygon stroke="black" stroke-width="1" fill="rgb(204, 204, 204)" fill-opacity="0" points="2153.000,337.000 2174.000,215.000 2113.000,172.000 2092.000,301.000 " />
<polygon stroke="black" stroke-width="1" fill="rgb(204, 204, 204)" fill-opacity="0" points="1916.000,1158.000 1785.000,1531.000 1812.000,1545.000 1959.000,1179.000 " />
<polygon stroke="black" stroke-width="1" fill="rgb(204, 204, 204)" fill-opacity="0" points="1803.000,172.000 1819.000,46.000 1732.000,27.000 1720.000,156.000 " />
<polygon stroke="black" stroke-width="1" fill="rgb(204, 204, 204)" fill-opacity="0" points="2088.000,447.000 2020.000,411.000 2016.000,568.000 2087.000,602.000 " />
<polygon stroke="black" stroke-width="1" fill="rgb(204, 204, 204)" fill-opacity="0" points="1881.000,198.000 1902.000,68.000 1819.000,46.000 1803.000,172.000 " />
<polygon stroke="black" stroke-width="1" fill="rgb(204, 204, 204)" fill-opacity="0" points="2535.000,2132.000 2384.000,2174.000 2397.000,2206.000 2556.000,2189.000 " />
<polygon stroke="black" stroke-width="1" fill="rgb(204, 204, 204)" fill-opacity="0" points="2535.000,2369.000 2556.000,2310.000 2397.000,2270.000 2384.000,2301.000 " />
<polygon stroke="black" stroke-width="1" fill="rgb(204, 204, 204)" fill-opacity="0" points="2505.000,2080.000 2369.000,2144.000 2384.000,2174.000 2535.000,2132.000 " />
<polygon stroke="black" stroke-width="1" fill="rgb(204, 204, 204)" fill-opacity="0" points="2502.000,2419.000 2535.000,2369.000 2384.000,2301.000 2369.000,2331.000 " />
<polygon stroke="black" stroke-width="1" fill="rgb(204, 204, 204)" fill-opacity="0" points="2556.000,2310.000 2567.000,2249.000 2399.000,2239.000 2397.000,2270.000 " />
<polygon stroke="black" stroke-width="1" fill="rgb(204, 204, 204)" fill-opacity="0" points="2464.000,2032.000 2345.000,2123.000 2369.000,2144.000 2505.000,2080.000 " />
<polygon stroke="black" stroke-width="1" fill="rgb(204, 204, 204)" fill-opacity="0" points="2460.000,2465.000 2502.000,2419.000 2369.000,2331.000 2345.000,2357.000 " />
<polygon stroke="black" stroke-width="1" fill="rgb(204, 204, 204)" fill-opacity="0" points="2412.000,1993.000 2320.000,2100.000 2345.000,2123.000 2464.000,2032.000 " />
<polygon stroke="black" stroke-width="1" fill="rgb(204, 204, 204)" fill-opacity="0" points="2407.000,2503.000 2460.000,2465.000 2345.000,2357.000 2320.000,2376.000 " />
<polygon stroke="black" stroke-width="1" fill="rgb(204, 204, 204)" fill-opacity="0" points="2354.000,1965.000 2290.000,2085.000 2320.000,2100.000 2412.000,1993.000 " />
<polygon stroke="black" stroke-width="1" fill="rgb(204, 204, 204)" fill-opacity="0" points="2348.000,2531.000 2407.000,2503.000 2320.000,2376.000 2288.000,2391.000 " />
<polygon stroke="black" stroke-width="1" fill="rgb(204, 204, 204)" fill-opacity="0" points="2290.000,1947.000 2255.000,2077.000 2290.000,2085.000 2354.000,1965.000 " />
<polygon stroke="black" stroke-width="1" fill="rgb(204, 204, 204)" fill-opacity="0" points="2286.000,2548.000 2348.000,2531.000 2288.000,2391.000 2253.000,2401.000 " />
<polygon stroke="black" stroke-width="1" fill="rgb(204, 204, 204)" fill-opacity="0" points="2222.000,1938.000 2220.000,2074.000 2255.000,2077.000 2290.000,1947.000 " />
<polygon stroke="black" stroke-width="1" fill="rgb(204, 204, 204)" fill-opacity="0" points="2216.000,2553.000 2286.000,2548.000 2253.000,2401.000 2218.000,2402.000 " />
<polygon stroke="black" stroke-width="1" fill="rgb(204, 204, 204)" fill-opacity="0" points="2556.000,2189.000 2397.000,2206.000 2399.000,2239.000 2567.000,2249.000 " />
<polygon stroke="black" stroke-width="1" fill="rgb(204, 204, 204)" fill-opacity="0" points="2369.000,2144.000 2303.000,2197.000 2312.000,2214.000 2384.000,2174.000 " />
<polygon stroke="black" stroke-width="1" fill="rgb(204, 204, 204)" fill-opacity="0" points="2320.000,2376.000 2345.000,2357.000 2288.000,2310.000 2275.000,2319.000 " />
<polygon stroke="black" stroke-width="1" fill="rgb(204, 204, 204)" fill-opacity="0" points="2220.000,2074.000 2220.000,2155.000 2240.000,2159.000 2255.000,2077.000 " />
<polygon stroke="black" stroke-width="1" fill="rgb(204, 204, 204)" fill-opacity="0" points="2345.000,2123.000 2292.000,2184.000 2303.000,2197.000 2369.000,2144.000 " />
<polygon stroke="black" stroke-width="1" fill="rgb(204, 204, 204)" fill-opacity="0" points="2288.000,2391.000 2320.000,2376.000 2275.000,2319.000 2255.000,2329.000 " />
<polygon stroke="black" stroke-width="1" fill="rgb(204, 204, 204)" fill-opacity="0" points="2397.000,2206.000 2316.000,2230.000 2320.000,2249.000 2399.000,2239.000 " />
<polygon stroke="black" stroke-width="1" fill="rgb(204, 204, 204)" fill-opacity="0" points="2253.000,2401.000 2288.000,2391.000 2255.000,2329.000 2238.000,2332.000 " />
<polygon stroke="black" stroke-width="1" fill="rgb(204, 204, 204)" fill-opacity="0" points="2384.000,2174.000 2312.000,2214.000 2316.000,2230.000 2397.000,2206.000 " />
<polygon stroke="black" stroke-width="1" fill="rgb(204, 204, 204)" fill-opacity="0" points="2218.000,2402.000 2253.000,2401.000 2238.000,2332.000 2218.000,2336.000 " />
<polygon stroke="black" stroke-width="1" fill="rgb(204, 204, 204)" fill-opacity="0" points="2397.000,2270.000 2399.000,2239.000 2320.000,2249.000 2316.000,2264.000 " />
<polygon stroke="black" stroke-width="1" fill="rgb(204, 204, 204)" fill-opacity="0" points="2384.000,2301.000 2397.000,2270.000 2316.000,2264.000 2310.000,2282.000 " />
<polygon stroke="black" stroke-width="1" fill="rgb(204, 204, 204)" fill-opacity="0" points="2320.000,2100.000 2277.000,2172.000 2292.000,2184.000 2345.000,2123.000 " />
<polygon stroke="black" stroke-width="1" fill="rgb(204, 204, 204)" fill-opacity="0" points="2369.000,2331.000 2384.000,2301.000 2310.000,2282.000 2299.000,2297.000 " />
<polygon stroke="black" stroke-width="1" fill="rgb(204, 204, 204)" fill-opacity="0" points="2290.000,2085.000 2258.000,2164.000 2277.000,2172.000 2320.000,2100.000 " />
<polygon stroke="black" stroke-width="1" fill="rgb(204, 204, 204)" fill-opacity="0" points="2345.000,2357.000 2369.000,2331.000 2299.000,2297.000 2288.000,2310.000 " />
<polygon stroke="black" stroke-width="1" fill="rgb(204, 204, 204)" fill-opacity="0" points="2255.000,2077.000 2240.000,2159.000 2258.000,2164.000 2290.000,2085.000 " />
<polygon stroke="black" stroke-width="1" fill="rgb(204, 204, 204)" fill-opacity="0" points="2275.000,2319.000 2288.000,2310.000 2243.000,2269.000 2237.000,2270.000 " />
<polygon stroke="black" stroke-width="1" fill="rgb(204, 204, 204)" fill-opacity="0" points="2220.000,2155.000 2218.000,2221.000 2227.000,2221.000 2240.000,2159.000 " />
<polygon stroke="black" stroke-width="1" fill="rgb(204, 204, 204)" fill-opacity="0" points="2255.000,2329.000 2275.000,2319.000 2237.000,2270.000 2233.000,2274.000 " />
<polygon stroke="black" stroke-width="1" fill="rgb(204, 204, 204)" fill-opacity="0" points="2316.000,2230.000 2250.000,2244.000 2252.000,2249.000 2320.000,2249.000 " />
<polygon stroke="black" stroke-width="1" fill="rgb(204, 204, 204)" fill-opacity="0" points="2303.000,2197.000 2246.000,2232.000 2248.000,2239.000 2312.000,2214.000 " />
<polygon stroke="black" stroke-width="1" fill="rgb(204, 204, 204)" fill-opacity="0" points="2238.000,2332.000 2255.000,2329.000 2233.000,2274.000 2227.000,2276.000 " />
<polygon stroke="black" stroke-width="1" fill="rgb(204, 204, 204)" fill-opacity="0" points="2292.000,2184.000 2243.000,2229.000 2246.000,2232.000 2303.000,2197.000 " />
<polygon stroke="black" stroke-width="1" fill="rgb(204, 204, 204)" fill-opacity="0" points="2218.000,2336.000 2238.000,2332.000 2227.000,2276.000 2220.000,2276.000 " />
<polygon stroke="black" stroke-width="1" fill="rgb(204, 204, 204)" fill-opacity="0" points="2312.000,2214.000 2248.000,2239.000 2250.000,2244.000 2316.000,2230.000 " />
<polygon stroke="black" stroke-width="1" fill="rgb(204, 204, 204)" fill-opacity="0" points="2316.000,2264.000 2320.000,2249.000 2252.000,2249.000 2252.000,2255.000 " />
<polygon stroke="black" stroke-width="1" fill="rgb(204, 204, 204)" fill-opacity="0" points="2310.000,2282.000 2316.000,2264.000 2252.000,2255.000 2248.000,2259.000 " />
<polygon stroke="black" stroke-width="1" fill="rgb(204, 204, 204)" fill-opacity="0" points="2277.000,2172.000 2237.000,2227.000 2243.000,2229.000 2292.000,2184.000 " />
<polygon stroke="black" stroke-width="1" fill="rgb(204, 204, 204)" fill-opacity="0" points="2299.000,2297.000 2310.000,2282.000 2248.000,2259.000 2246.000,2264.000 " />
<polygon stroke="black" stroke-width="1" fill="rgb(204, 204, 204)" fill-opacity="0" points="2258.000,2164.000 2233.000,2225.000 2237.000,2227.000 2277.000,2172.000 " />
<polygon stroke="black" stroke-width="1" fill="rgb(204, 204, 204)" fill-opacity="0" points="2288.000,2310.000 2299.000,2297.000 2246.000,2264.000 2243.000,2269.000 " />
<polygon stroke="black" stroke-width="1" fill="rgb(204, 204, 204)" fill-opacity="0" points="2240.000,2159.000 2227.000,2221.000 2233.000,2225.000 2258.000,2164.000 " />
<polygon stroke="black" stroke-width="1" fill="rgb(204, 204, 204)" fill-opacity="0" points="2246.000,2232.000 2243.000,2229.000 2237.000,2227.000 2233.000,2225.000 2227.000,2221.000 2218.000,2221.000 2220.000,2249.000 2252.000,2249.000 2250.000,2244.000 2248.000,2239.000 " />
<polygon stroke="black" stroke-width="1" fill="rgb(204, 204, 204)" fill-opacity="0" points="2252.000,2249.000 2220.000,2249.000 2220.000,2276.000 2227.000,2276.000 2233.000,2274.000 2237.000,2270.000 2243.000,2269.000 2246.000,2264.000 2248.000,2259.000 2252.000,2255.000 " />
<polygon stroke="black" stroke-width="1" fill="rgb(204, 204, 204)" fill-opacity="0" points="2009.000,1214.000 2234.000,692.000 2150.000,638.000 1959.000,1179.000 " />
<polygon stroke="black" stroke-width="1" fill="rgb(204, 204, 204)" fill-opacity="0" points="2171.000,1349.000 2463.000,843.000 2410.000,809.000 2129.000,1308.000 " />
<polygon stroke="black" stroke-width="1" fill="rgb(204, 204, 204)" fill-opacity="0" points="2052.000,1246.000 2301.000,737.000 2234.000,692.000 2009.000,1214.000 " />
<polygon stroke="black" stroke-width="1" fill="rgb(204, 204, 204)" fill-opacity="0" points="2092.000,1274.000 2352.000,770.000 2301.000,737.000 2052.000,1246.000 " />
<polygon stroke="black" stroke-width="1" fill="rgb(204, 204, 204)" fill-opacity="0" points="2129.000,1308.000 2410.000,809.000 2352.000,770.000 2092.000,1274.000 " />
<polygon stroke="black" stroke-width="1" fill="rgb(204, 204, 204)" fill-opacity="0" points="1916.000,1630.000 2129.000,1308.000 2092.000,1274.000 1890.000,1606.000 " />
<polygon stroke="black" stroke-width="1" fill="rgb(204, 204, 204)" fill-opacity="0" points="1890.000,1606.000 2092.000,1274.000 2052.000,1246.000 1865.000,1584.000 " />
<polygon stroke="black" stroke-width="1" fill="rgb(204, 204, 204)" fill-opacity="0" points="1865.000,1584.000 2052.000,1246.000 2009.000,1214.000 1839.000,1564.000 " />
<polygon stroke="black" stroke-width="1" fill="rgb(204, 204, 204)" fill-opacity="0" points="1938.000,1656.000 2171.000,1349.000 2129.000,1308.000 1916.000,1630.000 " />
<polygon stroke="black" stroke-width="1" fill="rgb(204, 204, 204)" fill-opacity="0" points="1839.000,1564.000 2009.000,1214.000 1959.000,1179.000 1812.000,1545.000 " />
<polygon stroke="black" stroke-width="1" fill="rgb(204, 204, 204)" fill-opacity="0" points="2087.000,602.000 1916.000,1158.000 1959.000,1179.000 2150.000,638.000 " />
<polygon stroke="black" stroke-width="1" fill="rgb(204, 204, 204)" fill-opacity="0" points="1704.000,467.000 1658.000,1076.000 1713.000,1085.000 1784.000,485.000 " />
<polygon stroke="black" stroke-width="1" fill="rgb(204, 204, 204)" fill-opacity="0" points="2016.000,568.000 1868.000,1136.000 1916.000,1158.000 2087.000,602.000 " />
<polygon stroke="black" stroke-width="1" fill="rgb(204, 204, 204)" fill-opacity="0" points="1625.000,456.000 1603.000,1067.000 1658.000,1076.000 1704.000,467.000 " />
<polygon stroke="black" stroke-width="1" fill="rgb(204, 204, 204)" fill-opacity="0" points="1864.000,508.000 1766.000,1098.000 1818.000,1116.000 1943.000,536.000 " />
<polygon stroke="black" stroke-width="1" fill="rgb(204, 204, 204)" fill-opacity="0" points="1546.000,452.000 1546.000,1066.000 1603.000,1067.000 1625.000,456.000 " />
<polygon stroke="black" stroke-width="1" fill="rgb(204, 204, 204)" fill-opacity="0" points="1784.000,485.000 1713.000,1085.000 1766.000,1098.000 1864.000,508.000 " />
<polygon stroke="black" stroke-width="1" fill="rgb(204, 204, 204)" fill-opacity="0" points="1943.000,536.000 1818.000,1116.000 1868.000,1136.000 2016.000,568.000 " />
<polygon stroke="black" stroke-width="1" fill="rgb(204, 204, 204)" fill-opacity="0" points="2026.000,262.000 2049.000,132.000 1979.000,98.000 1956.000,228.000 " />
<polygon stroke="black" stroke-width="1" fill="rgb(204, 204, 204)" fill-opacity="0" points="2026.000,262.000 2092.000,301.000 2113.000,172.000 2049.000,132.000 " />
<polygon stroke="black" stroke-width="1" fill="rgb(204, 204, 204)" fill-opacity="0" points="2496.000,660.000 2580.000,515.000 2440.000,520.000 2398.000,644.000 " />
<polygon stroke="black" stroke-width="1" fill="rgb(204, 204, 204)" fill-opacity="0" points="2398.000,644.000 2440.000,520.000 2343.000,459.000 2322.000,597.000 " />
<polygon stroke="black" stroke-width="1" fill="rgb(204, 204, 204)" fill-opacity="0" points="2322.000,597.000 2343.000,459.000 2245.000,399.000 2240.000,544.000 " />
<polygon stroke="black" stroke-width="1" fill="rgb(204, 204, 204)" fill-opacity="0" points="2240.000,544.000 2245.000,399.000 2153.000,337.000 2151.000,485.000 " />
<polygon stroke="black" stroke-width="1" fill="rgb(204, 204, 204)" fill-opacity="0" points="2410.000,809.000 2463.000,843.000 2559.000,702.000 2496.000,660.000 " />
<polygon stroke="black" stroke-width="1" fill="rgb(204, 204, 204)" fill-opacity="0" points="2496.000,660.000 2559.000,702.000 2653.000,565.000 2617.000,541.000 2580.000,515.000 " />
<polygon stroke="black" stroke-width="1" fill="rgb(204, 204, 204)" fill-opacity="0" points="2234.000,692.000 2240.000,544.000 2151.000,485.000 2150.000,638.000 " />
<polygon stroke="black" stroke-width="1" fill="rgb(204, 204, 204)" fill-opacity="0" points="2580.000,515.000 2472.000,443.000 2440.000,520.000 " />
<polygon stroke="black" stroke-width="1" fill="rgb(204, 204, 204)" fill-opacity="0" points="879.000,4080.000 1521.000,4080.000 1521.000,3988.000 887.000,3988.000 " />
<polygon stroke="black" stroke-width="1" fill="rgb(204, 204, 204)" fill-opacity="0" points="46.000,1325.000 429.000,1313.000 53.000,1259.000 " />
<polygon stroke="black" stroke-width="1" fill="rgb(204, 204, 204)" fill-opacity="0" points="53.000,1259.000 429.000,1313.000 73.000,1194.000 " />
<polygon stroke="black" stroke-width="1" fill="rgb(204, 204, 204)" fill-opacity="0" points="73.000,1194.000 429.000,1313.000 108.000,1135.000 " />
<polygon stroke="black" stroke-width="1" fill="rgb(204, 204, 204)" fill-opacity="0" points="108.000,1135.000 429.000,1313.000 150.000,1081.000 " />
<polygon stroke="black" stroke-width="1" fill="rgb(204, 204, 204)" fill-opacity="0" points="150.000,1081.000 429.000,1313.000 206.000,1033.000 " />
<polygon stroke="black" stroke-width="1" fill="rgb(204, 204, 204)" fill-opacity="0" points="206.000,1033.000 429.000,1313.000 269.000,1001.000 " />
<polygon stroke="black" stroke-width="1" fill="rgb(204, 204, 204)" fill-opacity="0" points="269.000,1001.000 429.000,1313.000 339.000,979.000 " />
<polygon stroke="black" stroke-width="1" fill="rgb(204, 204, 204)" fill-opacity="0" points="339.000,979.000 429.000,1313.000 427.000,964.000 " />
<polygon stroke="black" stroke-width="1" fill="rgb(204, 204, 204)" fill-opacity="0" points="35.000,1719.000 430.000,1728.000 429.000,1313.000 46.000,1325.000 " />
<polygon stroke="black" stroke-width="1" fill="rgb(204, 204, 204)" fill-opacity="0" points="4045.000,3202.000 4069.000,3534.000 3976.000,3968.000 " />
<polygon stroke="black" stroke-width="1" fill="rgb(204, 204, 204)" fill-opacity="0" points="359.000,3854.000 236.000,3988.000 887.000,3988.000 " />
<polygon stroke="black" stroke-width="1" fill="rgb(204, 204, 204)" fill-opacity="0" points="3534.000,3182.000 3525.000,1803.000 3987.000,1818.000 4045.000,3202.000 " />
<polygon stroke="black" stroke-width="1" fill="rgb(204, 204, 204)" fill-opacity="0" points="3893.000,9.000 4023.000,8.000 3987.000,1818.000 " />
<polygon stroke="black" stroke-width="1" fill="rgb(204, 204, 204)" fill-opacity="0" points="1247.000,2862.000 1521.000,2815.000 1521.000,1518.000 1500.000,1635.000 1475.000,1750.000 1454.000,1862.000 1429.000,1971.000 1407.000,2083.000 1383.000,2190.000 1362.000,2303.000 1337.000,2415.000 1292.000,2635.000 " />
<polygon stroke="black" stroke-width="1" fill="rgb(204, 204, 204)" fill-opacity="0" points="3383.000,3173.000 3461.000,3178.000 3465.000,3932.000 3388.000,3928.000 " />
<polygon stroke="black" stroke-width="1" fill="rgb(204, 204, 204)" fill-opacity="0" points="2343.000,459.000 2357.000,412.000 2260.000,344.000 2245.000,399.000 " />
<polygon stroke="black" stroke-width="1" fill="rgb(204, 204, 204)" fill-opacity="0" points="2245.000,399.000 2260.000,344.000 2174.000,215.000 2153.000,337.000 " />
<polygon stroke="black" stroke-width="1" fill="rgb(204, 204, 204)" fill-opacity="0" points="2472.000,443.000 2357.000,412.000 2343.000,459.000 2440.000,520.000 " />
<polygon stroke="black" stroke-width="1" fill="rgb(204, 204, 204)" fill-opacity="0" points="2357.000,412.000 2472.000,443.000 2174.000,215.000 2260.000,344.000 " />
<polygon stroke="black" stroke-width="1" fill="rgb(204, 204, 204)" fill-opacity="0" points="3987.000,1818.000 3525.000,1803.000 3513.000,23.000 3893.000,9.000 " />
<polygon stroke="black" stroke-width="1" fill="rgb(204, 204, 204)" fill-opacity="0" points="2301.000,737.000 2322.000,597.000 2240.000,544.000 2234.000,692.000 " />
<polygon stroke="black" stroke-width="1" fill="rgb(204, 204, 204)" fill-opacity="0" points="2352.000,770.000 2398.000,644.000 2322.000,597.000 2301.000,737.000 " />
<polygon stroke="black" stroke-width="1" fill="rgb(204, 204, 204)" fill-opacity="0" points="2410.000,809.000 2496.000,660.000 2398.000,644.000 2352.000,770.000 " />
<polygon stroke="black" stroke-width="1" fill="rgb(204, 204, 204)" fill-opacity="0" points="2092.000,301.000 2026.000,262.000 2020.000,411.000 2088.000,447.000 " />
<polygon stroke="black" stroke-width="1" fill="rgb(204, 204, 204)" fill-opacity="0" points="1881.000,198.000 1803.000,172.000 1792.000,323.000 1873.000,348.000 " />
<polygon stroke="black" stroke-width="1" fill="rgb(204, 204, 204)" fill-opacity="0" points="1720.000,156.000 1635.000,146.000 1629.000,296.000 1710.000,306.000 " />
<polygon stroke="black" stroke-width="1" fill="rgb(204, 204, 204)" fill-opacity="0" points="1956.000,228.000 1881.000,198.000 1873.000,348.000 1948.000,378.000 " />
<polygon stroke="black" stroke-width="1" fill="rgb(204, 204, 204)" fill-opacity="0" points="2026.000,262.000 1956.000,228.000 1948.000,378.000 2020.000,411.000 " />
<polygon stroke="black" stroke-width="1" fill="rgb(204, 204, 204)" fill-opacity="0" points="1635.000,146.000 1547.000,142.000 1546.000,291.000 1629.000,296.000 " />
<polygon stroke="black" stroke-width="1" fill="rgb(204, 204, 204)" fill-opacity="0" points="1803.000,172.000 1720.000,156.000 1710.000,306.000 1792.000,323.000 " />
<polygon stroke="black" stroke-width="1" fill="rgb(204, 204, 204)" fill-opacity="0" points="2153.000,337.000 2092.000,301.000 2088.000,447.000 2151.000,485.000 " />
<polygon stroke="black" stroke-width="1" fill="rgb(204, 204, 204)" fill-opacity="0" points="1462.000,1628.000 1500.000,1635.000 1521.000,1518.000 1488.000,1514.000 " />
<polygon stroke="black" stroke-width="1" fill="rgb(204, 204, 204)" fill-opacity="0" points="1408.000,1849.000 1454.000,1862.000 1475.000,1750.000 1434.000,1737.000 " />
<polygon stroke="black" stroke-width="1" fill="rgb(204, 204, 204)" fill-opacity="0" points="1354.000,2065.000 1407.000,2083.000 1429.000,1971.000 1381.000,1959.000 " />
<polygon stroke="black" stroke-width="1" fill="rgb(204, 204, 204)" fill-opacity="0" points="1303.000,2284.000 1362.000,2303.000 1383.000,2190.000 1328.000,2177.000 " />
<polygon stroke="black" stroke-width="1" fill="rgb(204, 204, 204)" fill-opacity="0" points="1521.000,2815.000 1247.000,2862.000 809.000,3296.000 425.000,3722.000 1521.000,3795.000 " />
<polygon stroke="black" stroke-width="1" fill="rgb(204, 204, 204)" fill-opacity="0" points="3363.000,23.000 3441.000,23.000 3452.000,1800.000 3461.000,3178.000 3383.000,3173.000 " />
<polygon stroke="black" stroke-width="1" fill="rgb(204, 204, 204)" fill-opacity="0" points="2829.000,24.000 2924.000,24.000 2923.000,3180.000 2829.000,3181.000 " />
<polygon stroke="black" stroke-width="1" fill="rgb(204, 204, 204)" fill-opacity="0" points="2924.000,24.000 3020.000,24.000 3030.000,3161.000 2923.000,3180.000 " />
<polygon stroke="black" stroke-width="1" fill="rgb(204, 204, 204)" fill-opacity="0" points="3020.000,24.000 3110.000,24.000 3125.000,3162.000 3030.000,3161.000 " />
<polygon stroke="black" stroke-width="1" fill="rgb(204, 204, 204)" fill-opacity="0" points="3110.000,24.000 3198.000,24.000 3216.000,3165.000 3125.000,3162.000 " />
<polygon stroke="black" stroke-width="1" fill="rgb(204, 204, 204)" fill-opacity="0" points="3198.000,24.000 3282.000,24.000 3300.000,3169.000 3216.000,3165.000 " />
<polygon stroke="black" stroke-width="1" fill="rgb(204, 204, 204)" fill-opacity="0" points="3282.000,24.000 3363.000,23.000 3383.000,3173.000 3300.000,3169.000 " />
<polygon stroke="black" stroke-width="1" fill="rgb(204, 204, 204)" fill-opacity="0" points="3534.000,3182.000 3461.000,3178.000 3452.000,1800.000 3525.000,1803.000 " />
<polygon stroke="black" stroke-width="1" fill="rgb(204, 204, 204)" fill-opacity="0" points="3441.000,23.000 3513.000,23.000 3525.000,1803.000 3452.000,1800.000 " />
<polygon stroke="black" stroke-width="1" fill="rgb(204, 204, 204)" fill-opacity="0" points="1026.000,1767.000 1021.000,1866.000 1133.000,1886.000 1157.000,1780.000 " />
<polygon stroke="black" stroke-width="1" fill="rgb(204, 204, 204)" fill-opacity="0" points="565.000,1767.000 493.000,2087.000 663.000,2850.000 738.000,2666.000 " />
<polygon stroke="black" stroke-width="1" fill="rgb(204, 204, 204)" fill-opacity="0" points="565.000,1767.000 738.000,2666.000 973.000,2065.000 994.000,2003.000 1013.000,1930.000 1021.000,1866.000 1026.000,1767.000 " />
<polygon stroke="black" stroke-width="1" fill="rgb(204, 204, 204)" fill-opacity="0" points="429.000,1771.000 358.000,2079.000 493.000,2087.000 565.000,1767.000 " />
<polygon stroke="black" stroke-width="1" fill="rgb(204, 204, 204)" fill-opacity="0" points="738.000,2666.000 663.000,2850.000 732.000,2869.000 810.000,2689.000 " />
<polygon stroke="black" stroke-width="1" fill="rgb(204, 204, 204)" fill-opacity="0" points="358.000,2079.000 237.000,2285.000 342.000,2293.000 493.000,2087.000 " />
<polygon stroke="black" stroke-width="1" fill="rgb(204, 204, 204)" fill-opacity="0" points="322.000,3543.000 342.000,2293.000 108.000,3533.000 108.000,3547.000 113.000,3566.000 134.000,3577.000 155.000,3584.000 184.000,3588.000 263.000,3584.000 " />
<polygon stroke="black" stroke-width="1" fill="rgb(204, 204, 204)" fill-opacity="0" points="493.000,2087.000 342.000,2293.000 322.000,3543.000 343.000,3542.000 663.000,2850.000 " />
<polygon stroke="black" stroke-width="1" fill="rgb(204, 204, 204)" fill-opacity="0" points="663.000,2850.000 343.000,3542.000 371.000,3570.000 732.000,2869.000 " />
<polygon stroke="black" stroke-width="1" fill="rgb(204, 204, 204)" fill-opacity="0" points="59.000,3547.000 71.000,3572.000 108.000,3547.000 108.000,3533.000 " />
<polygon stroke="black" stroke-width="1" fill="rgb(204, 204, 204)" fill-opacity="0" points="71.000,3572.000 85.000,3590.000 113.000,3566.000 108.000,3547.000 " />
<polygon stroke="black" stroke-width="1" fill="rgb(204, 204, 204)" fill-opacity="0" points="85.000,3590.000 112.000,3607.000 134.000,3577.000 113.000,3566.000 " />
<polygon stroke="black" stroke-width="1" fill="rgb(204, 204, 204)" fill-opacity="0" points="112.000,3607.000 146.000,3611.000 155.000,3584.000 134.000,3577.000 " />
<polygon stroke="black" stroke-width="1" fill="rgb(204, 204, 204)" fill-opacity="0" points="146.000,3611.000 179.000,3620.000 184.000,3588.000 155.000,3584.000 " />
<polygon stroke="black" stroke-width="1" fill="rgb(204, 204, 204)" fill-opacity="0" points="342.000,2293.000 237.000,2285.000 59.000,3547.000 108.000,3533.000 " />
<polygon stroke="black" stroke-width="1" fill="rgb(204, 204, 204)" fill-opacity="0" points="343.000,3542.000 322.000,3543.000 329.000,3555.000 " />
<polygon stroke="black" stroke-width="1" fill="rgb(204, 204, 204)" fill-opacity="0" points="329.000,3555.000 322.000,3543.000 321.000,3564.000 " />
<polygon stroke="black" stroke-width="1" fill="rgb(204, 204, 204)" fill-opacity="0" points="321.000,3564.000 322.000,3543.000 308.000,3575.000 " />
<polygon stroke="black" stroke-width="1" fill="rgb(204, 204, 204)" fill-opacity="0" points="308.000,3575.000 322.000,3543.000 296.000,3577.000 " />
<polygon stroke="black" stroke-width="1" fill="rgb(204, 204, 204)" fill-opacity="0" points="296.000,3577.000 322.000,3543.000 276.000,3584.000 " />
<polygon stroke="black" stroke-width="1" fill="rgb(204, 204, 204)" fill-opacity="0" points="276.000,3584.000 322.000,3543.000 263.000,3584.000 " />
<polygon stroke="black" stroke-width="1" fill="rgb(204, 204, 204)" fill-opacity="0" points="275.000,3613.000 288.000,3611.000 276.000,3584.000 263.000,3584.000 " />
<polygon stroke="black" stroke-width="1" fill="rgb(204, 204, 204)" fill-opacity="0" points="288.000,3611.000 308.000,3607.000 296.000,3577.000 276.000,3584.000 " />
<polygon stroke="black" stroke-width="1" fill="rgb(204, 204, 204)" fill-opacity="0" points="308.000,3607.000 328.000,3601.000 308.000,3575.000 296.000,3577.000 " />
<polygon stroke="black" stroke-width="1" fill="rgb(204, 204, 204)" fill-opacity="0" points="328.000,3601.000 347.000,3590.000 321.000,3564.000 308.000,3575.000 " />
<polygon stroke="black" stroke-width="1" fill="rgb(204, 204, 204)" fill-opacity="0" points="347.000,3590.000 364.000,3580.000 329.000,3555.000 321.000,3564.000 " />
<polygon stroke="black" stroke-width="1" fill="rgb(204, 204, 204)" fill-opacity="0" points="364.000,3580.000 371.000,3570.000 343.000,3542.000 329.000,3555.000 " />
<polygon stroke="black" stroke-width="1" fill="rgb(204, 204, 204)" fill-opacity="0" points="263.000,3584.000 184.000,3588.000 179.000,3620.000 275.000,3613.000 " />
<polygon stroke="black" stroke-width="1" fill="rgb(204, 204, 204)" fill-opacity="0" points="1066.000,2081.000 1092.000,2018.000 994.000,2003.000 973.000,2065.000 " />
<polygon stroke="black" stroke-width="1" fill="rgb(204, 204, 204)" fill-opacity="0" points="1092.000,2018.000 1116.000,1949.000 1013.000,1930.000 994.000,2003.000 " />
<polygon stroke="black" stroke-width="1" fill="rgb(204, 204, 204)" fill-opacity="0" points="1116.000,1949.000 1133.000,1886.000 1021.000,1866.000 1013.000,1930.000 " />
<polygon stroke="black" stroke-width="1" fill="rgb(204, 204, 204)" fill-opacity="0" points="1066.000,2081.000 973.000,2065.000 738.000,2666.000 810.000,2689.000 " />
<polygon stroke="black" stroke-width="1" fill="rgb(204, 204, 204)" fill-opacity="0" points="1274.000,2393.000 1337.000,2415.000 1362.000,2303.000 1303.000,2284.000 " />
<polygon stroke="black" stroke-width="1" fill="rgb(204, 204, 204)" fill-opacity="0" points="1328.000,2177.000 1383.000,2190.000 1407.000,2083.000 1354.000,2065.000 " />
<polygon stroke="black" stroke-width="1" fill="rgb(204, 204, 204)" fill-opacity="0" points="1381.000,1959.000 1429.000,1971.000 1454.000,1862.000 1408.000,1849.000 " />
<polygon stroke="black" stroke-width="1" fill="rgb(204, 204, 204)" fill-opacity="0" points="1434.000,1737.000 1475.000,1750.000 1500.000,1635.000 1462.000,1628.000 " />
<polygon stroke="black" stroke-width="1" fill="rgb(204, 204, 204)" fill-opacity="0" points="1521.000,3795.000 425.000,3722.000 359.000,3854.000 887.000,3988.000 1521.000,3988.000 " />
<polygon stroke="black" stroke-width="1" fill="rgb(204, 204, 204)" fill-opacity="0" points="90.000,4055.000 879.000,4080.000 887.000,3988.000 236.000,3988.000 " />
<polygon stroke="black" stroke-width="1" fill="rgb(204, 204, 204)" fill-opacity="0" points="1247.000,2862.000 1166.000,2841.000 751.000,3272.000 809.000,3296.000 " />
<polygon stroke="black" stroke-width="1" fill="rgb(204, 204, 204)" fill-opacity="0" points="809.000,3296.000 751.000,3272.000 354.000,3693.000 425.000,3722.000 " />
<polygon stroke="black" stroke-width="1" fill="rgb(204, 204, 204)" fill-opacity="0" points="425.000,3722.000 354.000,3693.000 280.000,3869.000 359.000,3854.000 " />
<polygon stroke="black" stroke-width="1" fill="rgb(204, 204, 204)" fill-opacity="0" points="359.000,3854.000 280.000,3869.000 90.000,4055.000 236.000,3988.000 " />
<polygon stroke="black" stroke-width="1" fill="rgb(204, 204, 204)" fill-opacity="0" points="1247.000,2862.000 1292.000,2635.000 1221.000,2616.000 1166.000,2841.000 " />
<polygon stroke="black" stroke-width="1" fill="rgb(204, 204, 204)" fill-opacity="0" points="1337.000,2415.000 1274.000,2393.000 1221.000,2616.000 1292.000,2635.000 " />

</svg>
